<svg version="1.2" xmlns="http://www.w3.org/2000/svg" viewBox="0 0 252 144" width="875" height="500">
	<style>
		.s0 { fill: #000000 } 
	</style>
	<g id="Layer 1">
		<path id="CineQuery" class="s0" aria-label="CineQuery"  d="m27 72.7q-6.3 0-8.7-3-1.7-2.1-1.7-6 0-1.6 0.3-3.5l1.8-11.1q2-12.2 14.4-12.2 5.1 0 7.7 2.4 2.7 2.3 2.7 6.5 0 1.9-0.5 3.9-0.5 1.9-1 2.8l-0.5 0.9h-7.8q1.4-1.8 1.4-5.2 0-1.8-0.8-2.8-0.8-1-2.5-1-4.4 0-5.3 5.4l-1.5 9.7q-0.2 1.3-0.2 2.5 0 3.2 3.5 3.2 4.1 0 5-5.2h7.9l-0.2 1.4q-1.7 11.3-14 11.3zm27.3-6.9q1 0 1.8-0.5l-0.2 5.5q-2.1 1.9-4.7 1.9-4.1 0-5.3-2.1-0.8-1.3-0.8-2.8 0-1.6 0.2-2.7l2.7-16.3h7.5l-2.5 15.2q0 0.3 0 0.5 0 1.3 1.3 1.3zm-5.4-24.9q0-3.1 1.2-4.5 1.3-1.5 3.9-1.5 3.7 0 3.7 3.6 0 3-1.2 4.5-1.3 1.4-4 1.4-3.6 0-3.6-3.5zm23.3 16.3q0-2.1-1.9-2.1-1.8 0-3 1.5l-2.4 15.4h-7.5l3.7-23.2h7l-0.5 2.8q2.6-3.5 6.6-3.5 4 0 5.2 2.1 0.7 1.4 0.7 3.1 0 1.7-0.2 3.2l-1.2 7.5q-0.1 0.3-0.1 0.5 0 1.3 1.4 1.3 1 0 1.8-0.5l-0.2 5.5q-2.1 1.9-4.8 1.9-6 0-6-5.5 0-1 0.2-2.1l1.1-6.4q0.1-0.9 0.1-1.5zm21.7 15.5q-9.2 0-9.2-7 0-1 0.2-2.1l0.9-6q0.8-4.6 3.9-7.1 3.2-2.5 8.4-2.5 8.9 0 8.9 7.4 0 1-0.2 2.3l-0.5 3.4h-13.5l-0.2 1.1q-0.1 0.6-0.1 1.1 0 2.7 2.9 2.7 1.1 0 1.8-0.8 0.8-0.7 0.9-1.7l7.3 0.1q-1.4 9.1-11.5 9.1zm-0.7-14.5h6q0.2-0.8 0.2-1.5 0-0.7-0.6-1.5-0.6-0.7-1.9-0.7-1.2 0-2.3 0.9-1 0.9-1.4 2.8zm32.9-21.3q10.7 0 10.7 9 0 1.5-0.3 3.2l-1.8 11.1q-0.9 5.6-3.7 8.7-2.7 3-7.7 3.6 0.5 1.7 2.4 2.8 1.9 1 4.9 1l-0.2 6.9q-3.4 0-6-0.9-2.5-0.8-3.9-1.9-1.4-1.2-2.3-2.8-1.3-2.5-1.4-5.2-7.3-1.2-7.3-8.8 0-1.6 0.4-3.4l1.8-11.1q2-12.2 14.4-12.2zm-4.6 28.3q2.2 0 3.5-1.2 1.3-1.2 1.9-4.5l1.6-9.7q0.1-1 0.1-1.7 0-3.7-3.7-3.7-4.6 0-5.4 5.4l-1.6 9.7q-0.1 1.2-0.1 2.4 0 3.3 3.7 3.3zm38.8-0.6q0 1.2 1.1 1.2 1.2 0 2-0.5l-0.2 5.5q-2.1 1.9-4.8 1.9-5 0-5.4-4.2-2.7 4.2-7.2 4.2-4.4 0-5.8-2.2-0.9-1.4-0.9-3.2 0-1.8 0.3-3.3l2.5-15.2h7.5l-2.1 12.8q-0.1 0.9-0.1 1.7 0 2.4 2.4 2.4 2 0 3.2-1.5l2.5-15.4h7.5l-2.5 15.2q0 0.3 0 0.6zm14.6 8.1q-9.2 0-9.2-7 0-1 0.2-2.1l0.9-6q0.8-4.6 3.9-7.1 3.2-2.5 8.4-2.5 8.9 0 8.9 7.4 0 1-0.2 2.3l-0.5 3.4h-13.5l-0.2 1.1q-0.1 0.6-0.1 1.1 0 2.7 2.9 2.7 1.1 0 1.8-0.8 0.8-0.7 0.9-1.7l7.3 0.1q-1.4 9.1-11.5 9.1zm-0.7-14.5h6q0.2-0.8 0.2-1.5 0-0.7-0.6-1.5-0.6-0.7-1.9-0.7-1.2 0-2.3 0.9-1 0.9-1.4 2.8zm37.2-4.5q0 1.6-0.5 3.2-0.5 1.5-1 2.2l-0.5 0.7h-6.7q1.1-1.1 1.1-2.7 0-0.9-0.5-1.4-0.5-0.6-1.4-0.6-1.5 0-2.6 1.6l-2.4 15.3h-7.5l3.7-23.2h7l-0.5 3.2q2.5-3.9 6.1-3.9 2.8 0 4.2 1.5 1.5 1.5 1.5 4.1zm12.1-4.9l-2.1 12.8q-0.1 0.9-0.1 1.7 0 2.4 2.4 2.4 1.9 0 3.2-1.5l2.5-15.4h7.5l-3.9 24q-1 6.1-4.5 9.7-3.4 3.6-7.9 3.6-4.4 0-6.4-1.8-2-1.8-2-4.7 0-4.1 4.7-7.3-2.6-0.7-3.2-2.8-0.4-1.1-0.4-2.6 0-1.4 0.2-2.9l2.5-15.2zm-1.9 30.4q2.9 0 3.8-5.8l0.4-2.8q-6.1 3.2-6.1 6.4 0 0.9 0.5 1.6 0.5 0.6 1.4 0.6z"/>
	</g>
	<g id="Folder 1">
	</g>
</svg>